<svg id="Layer_1" data-name="Layer 1" xmlns="http://www.w3.org/2000/svg" viewBox="0 0 256.26 54"><defs><style>.cls-1{fill:#fff;}</style></defs><path class="cls-1" d="M156.09,5.83c0-.23.33-.14.51-.17.53,1.27.91,2.6,1.44,3.88.81,2,1.47,4.1,2.32,6.11.41,1.34,1,2.63,1.46,3.94.3.63.39,1.33.7,1.95.44,1.22,1,2.41,1.35,3.66.53,1.41,1.14,2.78,1.59,4.22a14.78,14.78,0,0,0,.9,2.13,2.76,2.76,0,0,0,2.12,1.3v.83q-3.3,0-6.6,0c0-.28,0-.55,0-.81a1.31,1.31,0,0,0,1-.56c.31-.45.08-1-.09-1.45-.51-1.13-.79-2.33-1.29-3.46a13.06,13.06,0,0,0-.74-1.76,5.64,5.64,0,0,0-3.15-1.55,8.43,8.43,0,0,0-3.93.23,9.1,9.1,0,0,0-3.69,2,6.16,6.16,0,0,0-1,1.13,6.31,6.31,0,0,0-1.12,2.28,16,16,0,0,0-.65,2.11,1.15,1.15,0,0,0,1.15,1.06v.82c-1.38,0-2.75,0-4.13,0a7.45,7.45,0,0,1,0-.82,3.44,3.44,0,0,0,1.82-.84,12.45,12.45,0,0,0,1.15-2.55c.46-1,.73-2.13,1.17-3.18.31-.71.55-1.45.86-2.17.43-1.48,1.09-2.88,1.61-4.33S152,17,152.5,15.57s1.06-2.81,1.59-4.22c.37-1.28.93-2.5,1.39-3.75C155.75,7,155.84,6.4,156.09,5.83Zm-1,4.71c-.25.84-.68,1.62-.89,2.48-.54,1.51-1.22,3-1.68,4.51s-1.15,2.8-1.59,4.24c-.23.64-.52,1.25-.74,1.89a16.12,16.12,0,0,0-.81,2.3,5.63,5.63,0,0,1,1.54-1.29,10.17,10.17,0,0,1,5.42-1.45,7.56,7.56,0,0,1,4.07,1.18c-.48-1.38-1.14-2.7-1.55-4.11s-1.15-2.78-1.6-4.22-1.14-2.76-1.59-4.19A8,8,0,0,0,155.09,10.54Z"/><path class="cls-1" d="M239.08,5.83c0-.23.34-.14.51-.17.41,1.46,1.07,2.84,1.58,4.27s1.07,2.87,1.61,4.3c.37,1.25.91,2.44,1.36,3.66.32.66.42,1.39.74,2.05.42,1.16.94,2.28,1.29,3.46.49,1.42,1.16,2.78,1.58,4.23.36,1,.77,1.95,1.14,2.94a4,4,0,0,0,.77,1.46,3.13,3.13,0,0,0,1.8.83c0,.27,0,.54,0,.82-2.23,0-4.47,0-6.7,0,0-.27,0-.52,0-.78a1.53,1.53,0,0,0,1.07-.49,1.18,1.18,0,0,0,.09-1.15c-.55-1.47-1.19-2.91-1.65-4.41a3,3,0,0,0-.72-1.38,4.7,4.7,0,0,0-2-1.09,7.86,7.86,0,0,0-4.58-.14,8.7,8.7,0,0,0-1.71.54,9.24,9.24,0,0,0-3.14,2.4,14.15,14.15,0,0,0-1.77,3.77c-.18.48-.36,1.14.07,1.55a1.49,1.49,0,0,0,.93.38c0,.27,0,.54,0,.82q-2.11,0-4.23,0c0-.28,0-.55,0-.82a2.79,2.79,0,0,0,2.11-1.18,21.54,21.54,0,0,0,1.32-3.31c.27-.69.56-1.38.81-2.08s.41-1.38.73-2c.46-1.23,1-2.42,1.36-3.68.44-1.1.87-2.19,1.29-3.3.5-1.72,1.34-3.31,1.83-5,.47-1.2.95-2.4,1.41-3.61C238.31,7.67,238.76,6.78,239.08,5.83Zm-1,4.72c-.39,1.21-.92,2.37-1.36,3.57-.52,1.78-1.39,3.44-1.9,5.22-.89,2.15-1.63,4.35-2.46,6.52a8.38,8.38,0,0,1,2.18-1.52,9.38,9.38,0,0,1,4.55-1.12,7.32,7.32,0,0,1,4.3,1.21c-.34-.67-.49-1.41-.78-2.1-.46-1.25-1-2.45-1.41-3.73-.55-1.47-1.21-2.9-1.67-4.41C239,13,238.55,11.76,238.06,10.55Z"/><path class="cls-1" d="M45.58,5.94h8.51a8.08,8.08,0,0,1,5.8,2A6,6,0,0,1,61,15.19a6,6,0,0,1-2.13,2.25c-.38.28-.86.38-1.22.69a8.26,8.26,0,0,1,3.92,1.58,7.54,7.54,0,0,1,1.77,1.66,6.73,6.73,0,0,1,1,1.9,7.14,7.14,0,0,1-1.25,7.13A10.33,10.33,0,0,1,61.36,32a12.05,12.05,0,0,1-6.21,1.74H47.23a15.7,15.7,0,0,1-1.68,0c0-.27,0-.52,0-.78a1.89,1.89,0,0,0,1.51-1,5.15,5.15,0,0,0,.21-2q0-10.54,0-21.1a2.06,2.06,0,0,0-.63-1.66c-.27-.33-.73-.29-1.07-.47A5.08,5.08,0,0,1,45.58,5.94Zm5.94.89a1.84,1.84,0,0,0-1.34,2v7.93a1.06,1.06,0,0,0,.64,1c.6.06,1.21,0,1.82,0a7.43,7.43,0,0,0,3.41-.42,3.94,3.94,0,0,0,1.82-1.6,6.4,6.4,0,0,0-.72-7.91A5,5,0,0,0,53.7,6.78,17.59,17.59,0,0,0,51.52,6.83ZM50.73,18.7a1,1,0,0,0-.55,1V30.22a5.33,5.33,0,0,0,.08,1.32A1.73,1.73,0,0,0,52,32.85c2,0,4.2.18,6.09-.78a7.27,7.27,0,0,0,2.09-1.86,8.05,8.05,0,0,0,.72-7.58,6.16,6.16,0,0,0-1.6-2.34,6,6,0,0,0-1.42-.95c-1.55-.84-3.37-.73-5.08-.73A9.25,9.25,0,0,0,50.73,18.7Z"/><path class="cls-1" d="M70.72,5.94H89.05c0,.92.18,1.84.26,2.76,0,1.86.4,3.7.47,5.56H89.1a9.24,9.24,0,0,0-1-3.51,7.6,7.6,0,0,0-1-1.59,7.72,7.72,0,0,0-2.13-1.69,7.55,7.55,0,0,0-3-.68c-1.58,0-3.17,0-4.75,0A1.74,1.74,0,0,0,75.43,8a4.82,4.82,0,0,0-.1,1.37c0,3.13,0,6.25,0,9.38a1.08,1.08,0,0,0,.43.88,1.93,1.93,0,0,0,1,.16c1.15,0,2.3,0,3.45,0a3.61,3.61,0,0,0,2.91-1.42,4.71,4.71,0,0,0,1-3.05c.25,0,.49,0,.74,0,0,3.24,0,6.47,0,9.71h-.69a5.27,5.27,0,0,0-1.39-3.53,3.9,3.9,0,0,0-2.41-.88c-1.37,0-2.73,0-4.1,0a1,1,0,0,0-.92,1v8.06a6.71,6.71,0,0,0,.16,2.1,1.79,1.79,0,0,0,1.68,1.06h3a13.05,13.05,0,0,0,3.47-.26A5.91,5.91,0,0,0,86,31.43a7.23,7.23,0,0,0,1.71-2,10.41,10.41,0,0,0,1-2.26c.19-.61.25-1.25.41-1.87l.65.06c-.18,1.93-.47,3.85-.53,5.79-.08.84-.21,1.67-.25,2.52q-9.17,0-18.33,0c0-.28,0-.55,0-.82a1.79,1.79,0,0,0,1.47-.9,4.14,4.14,0,0,0,.24-2V8.7a2,2,0,0,0-.74-1.61,2.38,2.38,0,0,0-1-.33C70.71,6.48,70.71,6.21,70.72,5.94Z"/><path class="cls-1" d="M95.72,5.94H102a5.06,5.06,0,0,1,0,.87,1.6,1.6,0,0,0-1.59,1.5v23A1.63,1.63,0,0,0,102,32.83c1,.05,2,0,2.92,0a12.57,12.57,0,0,0,4.24-.39A5.52,5.52,0,0,0,111.57,31a9.3,9.3,0,0,0,2.57-5.61h.66c0,.58-.14,1.14-.14,1.72a20.91,20.91,0,0,1-.22,2.5c-.12,1.37-.29,2.73-.38,4.09a19.79,19.79,0,0,1-2.31,0H97.37a15.65,15.65,0,0,1-1.68,0c0-.27,0-.52,0-.78a2.29,2.29,0,0,0,1.46-.76,5,5,0,0,0,.3-2c0-7,0-14.07,0-21.1-.06-.64,0-1.44-.65-1.82-.3-.29-.74-.27-1.09-.45A6.77,6.77,0,0,1,95.72,5.94Z"/><path class="cls-1" d="M120.55,5.94h6.37c0,.27,0,.53,0,.8a1.93,1.93,0,0,0-1.32.65,3.4,3.4,0,0,0-.4,2.24V31a1.74,1.74,0,0,0,2,1.83h4a7.65,7.65,0,0,0,2.61-.33,5.27,5.27,0,0,0,1.62-.73,8.26,8.26,0,0,0,2.79-3.4,14.71,14.71,0,0,0,.78-3.07l.76,0c-.32,2.76-.62,5.52-.84,8.28-1.38.12-2.77,0-4.15,0-4.72,0-9.44,0-14.16,0,0-.28,0-.55,0-.82a1.93,1.93,0,0,0,1.58-1.09,4.32,4.32,0,0,0,.16-1.68q0-10.77,0-21.52a1.79,1.79,0,0,0-1.71-1.77A4.17,4.17,0,0,1,120.55,5.94Z"/><path class="cls-1" d="M165.84,5.94h6.66a6.77,6.77,0,0,1,0,.78c-.28.17-.68.1-.89.39a1.39,1.39,0,0,0-.11,1.48c.44,1.44,1.07,2.81,1.58,4.22s1.07,2.82,1.59,4.24,1.07,2.81,1.58,4.22,1.09,2.86,1.61,4.31c.37,1.19.85,2.34,1.32,3.49.32-.54.37-1.18.64-1.74.46-1.29,1-2.54,1.43-3.85.54-1.44,1.16-2.85,1.62-4.32L184.13,16c.47-1.55,1.15-3,1.69-4.54a20.48,20.48,0,0,1,.74-2,5,5,0,0,0,.51-1.71,1.12,1.12,0,0,0-1.17-.86c0-.29,0-.58,0-.87h4.16a5.08,5.08,0,0,1,0,.78c-.29.18-.69.1-1,.31a2.71,2.71,0,0,0-1.45,1.56c-.43,1.4-1,2.75-1.55,4.12S185,15.59,184.46,17c-.5,1.75-1.36,3.38-1.87,5.13-.53,1.41-1.15,2.79-1.58,4.23s-1.14,2.71-1.54,4.11l-1.26,3.24a.27.27,0,0,1-.51.06c-.4-1-.81-2.1-1.21-3.14-.49-1.66-1.29-3.21-1.78-4.86-.5-1.45-1.18-2.84-1.61-4.32s-1.19-2.84-1.61-4.32-1.17-2.85-1.62-4.33c-.43-1.1-.88-2.19-1.29-3.3a4.67,4.67,0,0,0-.89-1.88,3.05,3.05,0,0,0-1.85-.89Z"/><path class="cls-1" d="M194.86,5.94h6.38a5,5,0,0,1,0,.86,1.66,1.66,0,0,0-1.63,1.31,3.87,3.87,0,0,0-.08,1.13V30.09a4,4,0,0,0,.2,1.79,1.8,1.8,0,0,0,1.54,1c0,.27,0,.54,0,.82q-3.19,0-6.37,0c0-.28,0-.55,0-.81a1.89,1.89,0,0,0,1.51-1,3.74,3.74,0,0,0,.19-1.66V8.57a1.72,1.72,0,0,0-1.69-1.77C194.87,6.51,194.86,6.22,194.86,5.94Z"/><path class="cls-1" d="M206,5.94h6.64v.81a1.38,1.38,0,0,0-1.14.68,3.16,3.16,0,0,0,.43,2c.2.58.46,1.14.67,1.72.45,1.5,1.11,2.94,1.65,4.41.34,1.23.9,2.38,1.33,3.58.33.75.49,1.56.84,2.31.38,1.06.87,2.09,1.19,3.18.51,1.51,1.22,2.94,1.65,4.48.29-.51.42-1.08.66-1.61.31-.8.65-1.59.88-2.42.43-1.14.91-2.27,1.33-3.42.43-1.44,1.06-2.8,1.58-4.21.36-1.25.92-2.43,1.36-3.66.3-.63.39-1.32.7-1.95.4-1.05.82-2.09,1.2-3.14a1.76,1.76,0,0,0,0-1.42c-.19-.39-.65-.43-1-.46,0-.29,0-.58,0-.86h4.23c0,.27,0,.54,0,.82a3,3,0,0,0-1.66.7,4.12,4.12,0,0,0-1,1.66c-.42,1-.69,2.08-1.14,3.08-.84,2.09-1.52,4.24-2.4,6.31-.44,1.51-1.1,2.94-1.64,4.42s-1.09,2.81-1.58,4.24c-.31,1-.77,2-1.14,3.06-.5,1.18-.82,2.41-1.33,3.58-.06.21-.38.18-.5.06a7.3,7.3,0,0,1-.45-1.29c-.46-1.17-.91-2.34-1.36-3.51-.42-1.41-1-2.74-1.55-4.13s-1.06-2.82-1.59-4.23c-.36-1.28-.94-2.5-1.39-3.75-.28-.6-.38-1.26-.65-1.85-.55-1.37-1.09-2.73-1.54-4.13a21.58,21.58,0,0,0-1.45-3.3,2.81,2.81,0,0,0-1.82-.88A4.13,4.13,0,0,1,206,5.94Z"/><path class="cls-1" d="M54.9,42.28a3.52,3.52,0,0,1,3-.51,2.87,2.87,0,0,1,1.23.71c-.17.19-.25.51-.52.55s-.48-.33-.75-.42a2.33,2.33,0,0,0-2.2.2,2.72,2.72,0,0,0-1,2.7A2.3,2.3,0,0,0,58.55,47c.28-.19.55.18.66.4a3.28,3.28,0,0,1-3.46.81,2.88,2.88,0,0,1-1.14-.72,4.63,4.63,0,0,1-.62-1,3.94,3.94,0,0,1,.19-3.32A4.69,4.69,0,0,1,54.9,42.28Z"/><path class="cls-1" d="M108.26,41.68a3.29,3.29,0,0,1,2,.25,1.83,1.83,0,0,1,.63.34,3.52,3.52,0,0,1,.91,1.15,6.59,6.59,0,0,1,.27,1.06,4.41,4.41,0,0,1-.15,1.66,2.9,2.9,0,0,1-1.1,1.62,4.71,4.71,0,0,1-1.23.51,3.69,3.69,0,0,1-2-.2A2.69,2.69,0,0,1,106,46.59a3.82,3.82,0,0,1,0-3.24A2.94,2.94,0,0,1,108.26,41.68Zm.08.8a2.45,2.45,0,0,0-1,.51,1.75,1.75,0,0,0-.46.65,3.41,3.41,0,0,0-.23,2,2.31,2.31,0,0,0,.84,1.43,2.39,2.39,0,0,0,2.94-.13,2.16,2.16,0,0,0,.66-1.22,3.47,3.47,0,0,0-.4-2.48A2.36,2.36,0,0,0,108.34,42.48Z"/><path class="cls-1" d="M48.14,41.71c.3,0,.61,0,.92,0l.71,1.68c.23.72.55,1.41.83,2.11.22.51.36,1,.61,1.54s.35.79.47,1.21a3.36,3.36,0,0,1-.84,0,1.36,1.36,0,0,1-.33-.57c-.15-.4-.3-.8-.48-1.19-1,0-1.94,0-2.91,0a11.07,11.07,0,0,1-.45,1.3,1.42,1.42,0,0,1-.23.42,2.43,2.43,0,0,1-.89,0c.13-.41.34-.78.47-1.19.31-.93.78-1.8,1.07-2.74S47.82,42.6,48.14,41.71ZM48,44.22c-.14.56-.42,1.07-.6,1.62h2.39c-.38-1.06-.88-2.08-1.17-3.17C48.44,43.18,48.23,43.7,48,44.22Z"/><path class="cls-1" d="M63.63,41.72c.31,0,.61,0,.92,0,.4.83.65,1.72,1,2.56.16.44.39.85.51,1.3.33.9.79,1.75,1,2.68a2.66,2.66,0,0,1-.89,0A1.18,1.18,0,0,1,66,47.7c-.13-.41-.34-.8-.46-1.21-1,0-1.94,0-2.9,0a16,16,0,0,0-.57,1.5c-.14.44-.7.27-1.05.28.33-.93.71-1.85,1.1-2.76s.71-1.73,1-2.61C63.29,42.48,63.48,42.11,63.63,41.72Zm-.7,4.11c.78,0,1.56,0,2.34,0-.24-.76-.56-1.5-.85-2.24a2.62,2.62,0,0,1-.28-.94C63.73,43.71,63.27,44.75,62.93,45.83Z"/><path class="cls-1" d="M69.64,41.71H72a3.88,3.88,0,0,1,1.73.4A3.2,3.2,0,0,1,75.3,45a3.07,3.07,0,0,1-1.84,3,6.45,6.45,0,0,1-2.55.28H69.64Zm.9.74c0,1.68,0,3.36,0,5,.55,0,1.1,0,1.65,0a2.15,2.15,0,0,0,1.31-.44,2.49,2.49,0,0,0,.82-1.38,3.27,3.27,0,0,0-.33-2.2,2.11,2.11,0,0,0-1.75-1C71.67,42.43,71.1,42.46,70.54,42.45Z"/><path class="cls-1" d="M78.18,41.71h4a4.45,4.45,0,0,1,0,.73q-1.56,0-3.12,0c0,.72,0,1.43,0,2.15.84,0,1.67,0,2.51,0,0,.23,0,.46,0,.69-.84,0-1.68,0-2.51,0,0,.73,0,1.47,0,2.2h3.13a4.82,4.82,0,0,1,0,.76c-1.34,0-2.69,0-4,0,0-1.9,0-3.79,0-5.68C78.17,42.29,78.16,42,78.18,41.71Z"/><path class="cls-1" d="M85.05,41.72a5.08,5.08,0,0,1,.78,0c.1,0,.18.08.22.18.26.5.55,1,.84,1.46.3.63.68,1.23,1,1.83.15.39.39.74.57,1.11a2.4,2.4,0,0,1,.31-.67c.35-.79.87-1.49,1.22-2.28.33-.53.61-1.08.93-1.61a5,5,0,0,1,.87,0c0,.9,0,1.8,0,2.7,0,1.28,0,2.56,0,3.85-.26,0-.53,0-.79,0,0-1.71,0-3.42,0-5.13-.17.24-.25.53-.4.77-.48.75-.84,1.57-1.31,2.34-.19.32-.34.66-.54,1s-.68.16-.78-.16c-.32-.7-.78-1.31-1.09-2-.23-.38-.43-.78-.67-1.15s-.23-.54-.41-.78c0,1.71,0,3.42,0,5.13a5.61,5.61,0,0,1-.82,0C85.05,46.07,85,43.89,85.05,41.72Z"/><path class="cls-1" d="M94.29,41.71h.76c.26,0,.39.26.5.44.22.5.56.93.82,1.41s.53.94.79,1.41a13.81,13.81,0,0,1,1.2-2.16,3.08,3.08,0,0,1,.69-1.07,4.8,4.8,0,0,1,.93,0c-.19.37-.46.68-.62,1.06-.4.63-.8,1.27-1.17,1.92-.22.42-.67.78-.61,1.3,0,.75,0,1.51,0,2.26-.31,0-.61,0-.91,0,0-.57,0-1.14,0-1.71a2.17,2.17,0,0,0-.18-1.21c-.43-.66-.84-1.34-1.23-2A18.57,18.57,0,0,1,94.29,41.71Z"/><path class="cls-1" d="M114.9,41.72c1.36,0,2.71,0,4.06,0,0,.24,0,.49,0,.73-1,0-2.08,0-3.12,0,0,.76,0,1.52,0,2.28h2.66c0,.25,0,.49,0,.74-.9,0-1.79,0-2.68,0q0,1.39,0,2.79c-.31,0-.61,0-.92,0C114.9,46.07,114.88,43.89,114.9,41.72Z"/><path class="cls-1" d="M125.44,41.71h2.24a3,3,0,0,1,1.66.48,1.58,1.58,0,0,1,.14,2.2,3.23,3.23,0,0,1-.77.54,1.44,1.44,0,0,1,1.08.55,1.85,1.85,0,0,1,0,2,2.51,2.51,0,0,1-2,.82c-.77,0-1.54,0-2.32,0Q125.42,45,125.44,41.71Zm.89.71v2.22a4.23,4.23,0,0,0,2.18-.27,1.05,1.05,0,0,0,0-1.7A4.83,4.83,0,0,0,126.33,42.42Zm0,2.86v2.24a9,9,0,0,0,2.08-.09,1.11,1.11,0,0,0,.54-1.68,1.33,1.33,0,0,0-1-.46C127.39,45.27,126.86,45.28,126.33,45.28Z"/><path class="cls-1" d="M132.92,41.72c1.36,0,2.71,0,4.06,0,0,.24,0,.49,0,.73-1,0-2.08,0-3.11,0,0,.72,0,1.43,0,2.15h2.54v.71c-.84,0-1.69,0-2.53,0,0,.73,0,1.47,0,2.2H137c0,.25,0,.5,0,.76-1.36,0-2.72,0-4.07,0C132.92,46.07,132.91,43.89,132.92,41.72Z"/><path class="cls-1" d="M141.44,42.13c.09-.16.11-.47.37-.42h.71a18.72,18.72,0,0,1,.82,2c.32.78.68,1.54.94,2.33s.62,1.44.89,2.18a2.18,2.18,0,0,1-.95-.06c-.24-.56-.47-1.14-.69-1.71-1,0-1.93,0-2.9,0-.21.48-.32,1-.54,1.45-.07.12-.11.3-.27.32a4.07,4.07,0,0,1-.78,0c.09-.37.3-.69.39-1.06.31-.87.73-1.69,1-2.56S141.17,43,141.44,42.13Zm.64.53c-.17.64-.48,1.24-.7,1.87-.12.44-.34.86-.47,1.3q1.17,0,2.34,0a4.45,4.45,0,0,0-.33-.95c-.14-.36-.28-.72-.43-1.07S142.25,43,142.08,42.66Z"/><path class="cls-1" d="M147.53,41.72a7.06,7.06,0,0,1,.92,0v4a1.83,1.83,0,0,0,.74,1.59,1.79,1.79,0,0,0,2.12-.19,1.48,1.48,0,0,0,.5-1.16c0-1.4,0-2.8,0-4.2.31,0,.63,0,.94,0,0,1.22,0,2.43,0,3.65a5.63,5.63,0,0,1,0,.82,2.44,2.44,0,0,1-1.44,1.92,2.82,2.82,0,0,1-2.66-.19,1.7,1.7,0,0,1-.78-.89,3.81,3.81,0,0,1-.33-2.06C147.53,43.88,147.51,42.8,147.53,41.72Z"/><path class="cls-1" d="M155.23,41.72c1.72,0,3.43,0,5.15,0,0,.25,0,.51,0,.77-.71,0-1.41,0-2.12,0,0,1.27,0,2.54,0,3.8,0,.66,0,1.31,0,2h-.88V42.5c-.71,0-1.43,0-2.14,0C155.22,42.23,155.22,42,155.23,41.72Z"/><path class="cls-1" d="M162.12,41.71a8.64,8.64,0,0,1,.88,0c.13,0,.2.18.26.29.26.48.56.92.84,1.39s.65,1,.85,1.57c.17-.26.21-.58.4-.83.49-.7.84-1.48,1.31-2.19.22-.41.76-.19,1.14-.24-.19.39-.47.72-.67,1.1-.34.65-.81,1.23-1.12,1.89a7.74,7.74,0,0,0-.61,1c0,.86,0,1.72,0,2.59h-.88c-.06-.86,0-1.73,0-2.58-.41-.83-1-1.57-1.41-2.39A13,13,0,0,1,162.12,41.71Z"/><path class="cls-1" d="M174.62,41.85a2.35,2.35,0,0,1,1.63-.12A1.49,1.49,0,0,1,177.32,43a1.24,1.24,0,0,1-.68.13c-.18-.16-.19-.46-.39-.61a1,1,0,0,0-1.56.44,1.34,1.34,0,0,0,.42,1.26c.68.72,1.38,1.42,2.07,2.12a5.38,5.38,0,0,0,.41-1.42c.19-.17.48-.05.72-.07a3.61,3.61,0,0,1-.64,2c.45.47.93.93,1.38,1.42a9,9,0,0,1-1,0,10.07,10.07,0,0,1-.82-.78,4.13,4.13,0,0,1-1.57.81,2.19,2.19,0,0,1-2.19-.61,1.72,1.72,0,0,1-.12-2.17,1.75,1.75,0,0,1,1.1-.84,2.81,2.81,0,0,1-.55-1.31A1.7,1.7,0,0,1,174.62,41.85Zm.06,3.25a1.62,1.62,0,0,0-.82,1.24A1.16,1.16,0,0,0,175,47.6a2,2,0,0,0,1.68-.63.68.68,0,0,0-.2-.27c-.56-.54-1.08-1.11-1.64-1.64Z"/><path class="cls-1" d="M201,41.69a3.34,3.34,0,0,1,1.66.12,2.15,2.15,0,0,1,.71.49c-.1.21-.19.59-.48.55a4.44,4.44,0,0,0-1.05-.45,1.4,1.4,0,0,0-1.28.44,1,1,0,0,0-.11.85c.4.61,1.18.71,1.81,1a1.61,1.61,0,0,1,1.26,1.62,1.93,1.93,0,0,1-1,1.77,2.77,2.77,0,0,1-3.25-.58c.13-.23.25-.64.58-.56s.44.39.72.49a1.59,1.59,0,0,0,1.8-.22,1,1,0,0,0,.06-1.4c-.65-.53-1.57-.51-2.24-1a1.67,1.67,0,0,1-.33-2.31A1.64,1.64,0,0,1,201,41.69Z"/><path class="cls-1" d="M242.24,41.68a3.08,3.08,0,0,1,2.76.78c0,.19-.21.34-.34.48s-.35-.06-.5-.13a2.43,2.43,0,0,0-2.42-.12,1.25,1.25,0,0,0-.61.5,3,3,0,0,0-.26,3.16,2.22,2.22,0,0,0,.89.93,2.41,2.41,0,0,0,1.61.21,1.59,1.59,0,0,0,.87-.4c.15-.1.3-.33.5-.2a1.5,1.5,0,0,1,.33.42c0,.21-.27.31-.42.44a3.3,3.3,0,0,1-3.36.24,2.61,2.61,0,0,1-1.1-1,3.87,3.87,0,0,1,.15-4.28,3.73,3.73,0,0,1,.92-.76A2.84,2.84,0,0,1,242.24,41.68Z"/><path class="cls-1" d="M248.91,41.69a2.61,2.61,0,0,1,2.39.61c-.07.23-.19.6-.5.55a4.41,4.41,0,0,0-.91-.42,1.34,1.34,0,0,0-1.43.46,1,1,0,0,0-.08.79,1.56,1.56,0,0,0,.85.64c.38.13.75.28,1.14.39a1.82,1.82,0,0,1,.74.52,1.88,1.88,0,0,1,.06,2.13,2.12,2.12,0,0,1-1,.81,2.79,2.79,0,0,1-2.95-.71,1.56,1.56,0,0,1,.35-.56c.24-.07.39.16.57.27a1.77,1.77,0,0,0,1.88.22,1.12,1.12,0,0,0,.51-1.41c-.15-.31-.51-.41-.79-.55a5.86,5.86,0,0,1-1.82-.81,1.8,1.8,0,0,1-.13-2.16A1.58,1.58,0,0,1,248.91,41.69Z"/><path class="cls-1" d="M187,41.73a4.13,4.13,0,0,1,.93,0c.35.83.72,1.65,1,2.51s.67,1.49.91,2.27c.23.58.48,1.15.71,1.73-.31,0-.67.09-.95-.08-.29-.54-.45-1.14-.72-1.69h-2.77c-.14,0-.16.13-.19.22a11.54,11.54,0,0,1-.57,1.41c-.23.27-.65.09-1,.14.12-.46.37-.88.52-1.33.23-.7.55-1.37.82-2.05.18-.37.25-.78.44-1.15s.4-1,.61-1.45C186.85,42.09,186.85,41.87,187,41.73Zm-.17,2.71c-.21.44-.36.9-.56,1.35h2.4c-.43-1-.82-2.07-1.19-3.12C187.24,43.26,187,43.83,186.8,44.44Z"/><path class="cls-1" d="M193,41.72h4a4.45,4.45,0,0,1,0,.73h-3.13V44.6h2.54v.71h-2.54c0,.74,0,1.47,0,2.21,1.05,0,2.1,0,3.14,0v.72H193C193,46.07,193,43.9,193,41.72Z"/><path class="cls-1" d="M205.72,41.73c.86,0,1.73,0,2.6,0s1.68,0,2.52,0c0,.24,0,.49,0,.73-.7,0-1.4,0-2.1,0,0,1.92,0,3.85,0,5.77h-.9c0-1.92,0-3.85,0-5.78-.7,0-1.41,0-2.11,0Z"/><path class="cls-1" d="M213.4,41.72h.95V44.6c1.15,0,2.31,0,3.46,0,0-.95,0-1.91,0-2.86h.91v6.53h-.93c0-1,0-2,0-3h-3.43v3h-.95Z"/><path class="cls-1" d="M222,41.72H226c0,.24,0,.48,0,.73-1,0-2.07,0-3.1,0,0,.71,0,1.42,0,2.14h2.5v.71h-2.5c0,.74,0,1.47,0,2.2,1,0,2.07,0,3.1,0v.73H222Z"/><path class="cls-1" d="M228.17,41.72c1.29,0,2.59,0,3.89,0,.41,0,.83,0,1.25,0,0,.24,0,.49,0,.73-.71,0-1.41,0-2.12,0,0,1.93,0,3.86,0,5.78h-.89c0-1.92,0-3.85,0-5.77-.7,0-1.41,0-2.11,0C228.16,42.22,228.16,42,228.17,41.72Z"/><path class="cls-1" d="M235.85,41.72h.91c0,2.18,0,4.35,0,6.53h-.91C235.84,46.07,235.83,43.9,235.85,41.72Z"/><path class="cls-1" d="M35.6,3.07a1,1,0,0,1,1.49-.27.92.92,0,0,1,.32.56,1.52,1.52,0,0,1-.2.88c-.12.45-.31.87-.47,1.3-.1.23-.15.48-.26.71s-.3.72-.41,1.1-.31.76-.45,1.14-.36.94-.54,1.4-.44,1.11-.62,1.69c-.14.37-.29.73-.44,1.1a12.75,12.75,0,0,1-.46,1.22c-.1.23-.15.49-.26.72s-.3.72-.41,1.09-.32.8-.47,1.2-.21.56-.31.84-.3.85-.48,1.26-.25.59-.33.9l-.46,1.17c-.16.55-.43,1.07-.6,1.61s-.32.8-.48,1.2a7.87,7.87,0,0,1-.3.81c-.18.4-.29.82-.47,1.21-.23.55-.41,1.11-.65,1.66a4.38,4.38,0,0,0-.22.64c-.23-.18-.45-.36-.66-.56L26.6,27a.5.5,0,0,1-.13-.12c.17-.61.47-1.17.66-1.77.14-.36.28-.72.43-1.07.17-.59.46-1.13.63-1.71.15-.36.29-.72.43-1.07s.31-.79.45-1.19c.11-.21.14-.44.24-.64.3-.72.54-1.45.85-2.17.09-.2.12-.42.22-.61s.26-.64.38-1c.17-.54.43-1.06.6-1.61l.48-1.19c.09-.32.24-.62.35-.93s.21-.59.33-.87.26-.63.38-.95a8,8,0,0,1,.35-.93c.15-.34.24-.69.39-1,.27-.65.49-1.32.77-2,.09-.2.13-.42.22-.61s.27-.66.39-1C35.19,4.08,35.45,3.59,35.6,3.07Z"/><path class="cls-1" d="M6.19,4.57c1.11,0,2.22,0,3.33,0h7.61a8.86,8.86,0,0,1,2.88.5,6.87,6.87,0,0,1,1.37.58,5.63,5.63,0,0,1,.83.46,4.31,4.31,0,0,1,.63.42c.17.15.39.25.55.42s.32.27.47.42a6,6,0,0,1,.45.43c.17.22.38.39.54.62a9.59,9.59,0,0,1,.72,1c.14.24.31.46.43.72a8.49,8.49,0,0,1,.6,1.43,8.83,8.83,0,0,1,.51,2.89,10.11,10.11,0,0,1,0,1.23,8.87,8.87,0,0,1-.59,2.64,10.31,10.31,0,0,1-.93,1.81,3.87,3.87,0,0,1-.46.68,10.62,10.62,0,0,1-1.5,1.64l-.84.66c-.31.17-.58.41-.9.56a12,12,0,0,1-1.14.55,10.64,10.64,0,0,1-1.34.47c-.5.1-1,.22-1.51.27s-.84,0-1.26.06H14.3c-.17-.45-.38-.88-.53-1.34s-.3-.73-.45-1.09-.34-.86-.51-1.3-.37-.93-.55-1.4-.35-.86-.52-1.3a10.36,10.36,0,0,0-.41-1.05c-.13-.3-.22-.62-.36-.92s-.18-.46-.28-.68c-.15-.48-.37-.93-.55-1.4s-.34-.87-.52-1.3-.37-.93-.55-1.4-.36-.9-.53-1.36S8.1,9.5,7.93,9c-.14-.35-.28-.69-.43-1S7.14,7,7,6.58s-.42-1-.59-1.53C6.32,4.89,6.24,4.73,6.19,4.57Z"/><path class="cls-1" d="M4.8,22.53c.13.22.19.46.3.68s.27.75.44,1.11.17.42.26.62c.15.47.36.91.54,1.36s.35.86.52,1.3.37.89.55,1.35.35.86.52,1.29.46,1.08.63,1.63.37.85.52,1.29.4.9.54,1.37l.43,1c.15.48.37.93.55,1.39a7.94,7.94,0,0,0,.31.81c.18.38.29.78.46,1.16s.27.63.37,1l.43,1c.17.55.46,1.07.63,1.62l.43,1c.13.4.32.78.47,1.17s.17.5.29.74.28.64.39,1,.3.75.46,1.12c.15.53.42,1,.59,1.54a3.64,3.64,0,0,0,.65,1.25,2.27,2.27,0,0,0,1.63.69,2.2,2.2,0,0,0,1.68-.72,4.49,4.49,0,0,0,.7-1.38c.17-.52.38-1,.59-1.53s.43-1.06.6-1.61c.14-.37.29-.74.44-1.1.17-.58.46-1.11.63-1.68l.42-1c.16-.5.37-1,.56-1.47s.29-.72.42-1.09.18-.54.3-.8c.3-.69.53-1.4.83-2.09s.49-1.19.68-1.8.55-1.42.84-2.12a3.77,3.77,0,0,0,.23-.64,1.33,1.33,0,0,0-.24-.33c-.23-.2-.41-.45-.64-.64a4.21,4.21,0,0,0-.66-.54c-.11.21-.15.46-.25.68-.16.4-.34.8-.47,1.21s-.3.74-.44,1.11c-.17.56-.44,1.08-.61,1.64-.16.39-.32.78-.47,1.17s-.24.64-.36,1-.2.56-.32.83-.33.78-.45,1.19-.23.59-.35.88-.14.44-.24.65l-.3.77a3.66,3.66,0,0,1-.18-.46c-.14-.35-.28-.69-.43-1s-.29-.74-.43-1.11-.16-.48-.27-.71c-.15-.38-.33-.75-.45-1.14l-.42-1c-.13-.4-.32-.79-.47-1.18s-.18-.54-.3-.79-.28-.63-.38-1S17.2,32.39,17,32s-.38-.93-.55-1.4-.29-.72-.43-1.08c-.1-.2-.14-.43-.24-.64-.15-.38-.33-.75-.45-1.14s-.22-.48-.29-.74h2a2.75,2.75,0,0,1,.81.06,14.86,14.86,0,0,1,1.88.14c.36,0,.72.13,1.08.19a11.91,11.91,0,0,1,1.43.46,11.87,11.87,0,0,1,1.41.63c.31.17.61.36.92.54s.51.38.78.54.4.34.61.5.52.45.74.72a1.89,1.89,0,0,0,.2.2c.18.15.28.36.45.52a6.31,6.31,0,0,1,.44.58,6.8,6.8,0,0,1,.48.71,4.77,4.77,0,0,1,.43.76A9.55,9.55,0,0,1,29.35,35a10.11,10.11,0,0,1,.35,1.06c.07.36.17.71.23,1.07A10.67,10.67,0,0,1,30.11,39a9.51,9.51,0,0,1,0,1.31,13,13,0,0,1-.31,1.87,7.6,7.6,0,0,1-.43,1.38,7.52,7.52,0,0,1-.32.78,12.39,12.39,0,0,1-.67,1.24,8.22,8.22,0,0,1-.58.87c-.13.15-.22.34-.36.48s-.36.47-.58.66-.28.34-.46.47-.37.37-.59.52a6.08,6.08,0,0,1-.69.54A14,14,0,0,1,23.7,50a12.29,12.29,0,0,1-1.53.68,8,8,0,0,1-1.73.49,11.19,11.19,0,0,1-2.38.25H9.17c-1.46,0-2.92,0-4.38,0V23.69C4.79,23.31,4.78,22.92,4.8,22.53Z"/></svg>